<svg id="icon-exploration" viewBox="2 2 24 24" fill="currentColor" xmlns="http://www.w3.org/2000/svg">
	<path fill-rule="evenodd" clip-rule="evenodd" d="M14 22C18.4183 22 22 18.4183 22 14C22 9.58172 18.4183 6 14 6C9.58172 6 6 9.58172 6 14C6 18.4183 9.58172 22 14 22ZM14 23C18.9706 23 23 18.9706 23 14C23 9.02944 18.9706 5 14 5C9.02944 5 5 9.02944 5 14C5 18.9706 9.02944 23 14 23Z" />
	<path fill-rule="evenodd" clip-rule="evenodd" d="M10.7522 17.9707L15.8949 16.2564C15.9791 16.2283 16.0556 16.181 16.1184 16.1183C16.1812 16.0555 16.2285 15.979 16.2566 15.8947L17.9708 10.752C18.0043 10.6514 18.0091 10.5434 17.9847 10.4401C17.9602 10.3369 17.9075 10.2425 17.8325 10.1675C17.7575 10.0925 17.6631 10.0398 17.5599 10.0153C17.4566 9.99092 17.3486 9.99573 17.248 10.0292L12.1053 11.7434C12.0211 11.7715 11.9445 11.8188 11.8817 11.8816C11.819 11.9444 11.7717 12.0209 11.7436 12.1051L10.0293 17.2478C9.99577 17.3485 9.9909 17.4565 10.0153 17.5598C10.0397 17.6631 10.0923 17.7576 10.1674 17.8326C10.2424 17.9077 10.3369 17.9603 10.4402 17.9847C10.5435 18.0091 10.6515 18.0042 10.7522 17.9707ZM16.7511 11.2489L12.6246 12.6244L11.2491 16.7509L15.3756 15.3754L16.7511 11.2489ZM10.436 17.022C10.4361 17.0219 10.4362 17.0219 10.4363 17.0219L10.436 17.022Z" />
</svg>
